<mxfile host="app.diagrams.net" agent="Mozilla/5.0 (Windows NT 10.0; Win64; x64) AppleWebKit/537.36 (KHTML, like Gecko) Chrome/128.0.0.0 Safari/537.36" version="24.7.8">
  <diagram name="Página-1" id="RdOozAaawvgIbFJdLRxL">
    <mxGraphModel dx="1434" dy="772" grid="1" gridSize="10" guides="1" tooltips="1" connect="1" arrows="1" fold="1" page="1" pageScale="1" pageWidth="827" pageHeight="1169" math="0" shadow="0">
      <root>
        <mxCell id="0" />
        <mxCell id="1" parent="0" />
        <mxCell id="uGVBlFAb6Csp1ZK7lJBS-1" value="" style="whiteSpace=wrap;html=1;aspect=fixed;" vertex="1" parent="1">
          <mxGeometry x="50" y="10" width="760" height="760" as="geometry" />
        </mxCell>
        <mxCell id="uGVBlFAb6Csp1ZK7lJBS-2" value="" style="rounded=0;whiteSpace=wrap;html=1;" vertex="1" parent="1">
          <mxGeometry x="114" y="75" width="600" height="120" as="geometry" />
        </mxCell>
        <mxCell id="uGVBlFAb6Csp1ZK7lJBS-3" value="Foto" style="ellipse;whiteSpace=wrap;html=1;aspect=fixed;" vertex="1" parent="1">
          <mxGeometry x="120" y="80" width="110" height="110" as="geometry" />
        </mxCell>
        <mxCell id="uGVBlFAb6Csp1ZK7lJBS-4" value="" style="rounded=0;whiteSpace=wrap;html=1;" vertex="1" parent="1">
          <mxGeometry x="114" y="195" width="600" height="60" as="geometry" />
        </mxCell>
        <mxCell id="uGVBlFAb6Csp1ZK7lJBS-8" value="Instagram" style="rounded=0;whiteSpace=wrap;html=1;" vertex="1" parent="1">
          <mxGeometry x="60" y="720" width="100" height="40" as="geometry" />
        </mxCell>
        <mxCell id="uGVBlFAb6Csp1ZK7lJBS-9" value="Twitter" style="rounded=0;whiteSpace=wrap;html=1;" vertex="1" parent="1">
          <mxGeometry x="170" y="720" width="100" height="40" as="geometry" />
        </mxCell>
        <mxCell id="uGVBlFAb6Csp1ZK7lJBS-10" value="Linkedin" style="rounded=0;whiteSpace=wrap;html=1;" vertex="1" parent="1">
          <mxGeometry x="280" y="720" width="100" height="40" as="geometry" />
        </mxCell>
        <mxCell id="uGVBlFAb6Csp1ZK7lJBS-12" value="Um pouco sobre mim" style="rounded=0;whiteSpace=wrap;html=1;" vertex="1" parent="1">
          <mxGeometry x="450" y="365" width="260" height="165" as="geometry" />
        </mxCell>
        <mxCell id="uGVBlFAb6Csp1ZK7lJBS-13" value="Imagem" style="whiteSpace=wrap;html=1;aspect=fixed;" vertex="1" parent="1">
          <mxGeometry x="125" y="332.5" width="230" height="230" as="geometry" />
        </mxCell>
        <mxCell id="uGVBlFAb6Csp1ZK7lJBS-15" value="Home" style="rounded=0;whiteSpace=wrap;html=1;" vertex="1" parent="1">
          <mxGeometry x="132.5" y="202.5" width="85" height="45" as="geometry" />
        </mxCell>
        <mxCell id="uGVBlFAb6Csp1ZK7lJBS-16" value="Serviços" style="rounded=0;whiteSpace=wrap;html=1;" vertex="1" parent="1">
          <mxGeometry x="300" y="202.5" width="85" height="45" as="geometry" />
        </mxCell>
        <mxCell id="uGVBlFAb6Csp1ZK7lJBS-17" value="Contribuições" style="rounded=0;whiteSpace=wrap;html=1;" vertex="1" parent="1">
          <mxGeometry x="460" y="202.5" width="85" height="45" as="geometry" />
        </mxCell>
        <mxCell id="uGVBlFAb6Csp1ZK7lJBS-18" value="Empresas" style="rounded=0;whiteSpace=wrap;html=1;" vertex="1" parent="1">
          <mxGeometry x="610" y="202.5" width="85" height="45" as="geometry" />
        </mxCell>
      </root>
    </mxGraphModel>
  </diagram>
</mxfile>
